# Blender v2.79 (sub 0) OBJ File: 'title3.blend'
# www.blender.org
o 2.1S_CUText.005
v 3.433547 0.544951 0.036000
v 3.419204 0.556357 0.036000
v 3.405000 0.566297 0.036000
v 3.390963 0.574852 0.036000
v 3.377120 0.582101 0.036000
v 3.363500 0.588125 0.036000
v 3.350130 0.593003 0.036000
v 3.337037 0.596815 0.036000
v 3.324250 0.599641 0.036000
v 3.311796 0.601560 0.036000
v 3.299704 0.602653 0.036000
v 3.288000 0.603000 0.036000
v 3.272641 0.602323 0.036000
v 3.258125 0.600333 0.036000
v 3.244547 0.597094 0.036000
v 3.232000 0.592667 0.036000
v 3.220578 0.587115 0.036000
v 3.210375 0.580500 0.036000
v 3.201485 0.572885 0.036000
v 3.194000 0.564333 0.036000
v 3.188016 0.554906 0.036000
v 3.183625 0.544667 0.036000
v 3.180922 0.533677 0.036000
v 3.180000 0.522000 0.036000
v 3.185805 0.491817 0.036000
v 3.201852 0.465954 0.036000
v 3.226094 0.443187 0.036000
v 3.256482 0.422296 0.036000
v 3.290967 0.402058 0.036000
v 3.327500 0.381250 0.036000
v 3.364034 0.358650 0.036000
v 3.398519 0.333037 0.036000
v 3.428906 0.303187 0.036000
v 3.453148 0.267880 0.036000
v 3.469196 0.225891 0.036000
v 3.475000 0.176000 0.036000
v 3.473343 0.149883 0.036000
v 3.468491 0.125144 0.036000
v 3.460625 0.101953 0.036000
v 3.449926 0.080481 0.036000
v 3.436574 0.060899 0.036000
v 3.420750 0.043375 0.036000
v 3.402634 0.028080 0.036000
v 3.382407 0.015185 0.036000
v 3.360250 0.004859 0.036000
v 3.336343 -0.002727 0.036000
v 3.310866 -0.007403 0.036000
v 3.284000 -0.009000 0.036000
v 3.265785 -0.008582 0.036000
v 3.248116 -0.007319 0.036000
v 3.230953 -0.005203 0.036000
v 3.214259 -0.002222 0.036000
v 3.197996 0.001634 0.036000
v 3.182125 0.006375 0.036000
v 3.166608 0.012012 0.036000
v 3.151407 0.018556 0.036000
v 3.136484 0.026016 0.036000
v 3.121801 0.034403 0.036000
v 3.107319 0.043727 0.036000
v 3.093000 0.054000 0.036000
v 3.093000 0.178000 0.036000
v 3.105766 0.162608 0.036000
v 3.119042 0.148444 0.036000
v 3.132797 0.135531 0.036000
v 3.147000 0.123889 0.036000
v 3.161620 0.113538 0.036000
v 3.176625 0.104500 0.036000
v 3.191984 0.096795 0.036000
v 3.207667 0.090444 0.036000
v 3.223641 0.085469 0.036000
v 3.239875 0.081889 0.036000
v 3.256339 0.079726 0.036000
v 3.273000 0.079000 0.036000
v 3.291150 0.079966 0.036000
v 3.307611 0.082731 0.036000
v 3.322407 0.087094 0.036000
v 3.335556 0.092852 0.036000
v 3.347080 0.099804 0.036000
v 3.357000 0.107750 0.036000
v 3.365337 0.116487 0.036000
v 3.372111 0.125815 0.036000
v 3.377344 0.135531 0.036000
v 3.381056 0.145435 0.036000
v 3.383267 0.155325 0.036000
v 3.384000 0.165000 0.036000
v 3.378195 0.197817 0.036000
v 3.362148 0.226454 0.036000
v 3.337906 0.251937 0.036000
v 3.307518 0.275296 0.036000
v 3.273033 0.297558 0.036000
v 3.236500 0.319750 0.036000
v 3.199966 0.342900 0.036000
v 3.165481 0.368037 0.036000
v 3.135094 0.396187 0.036000
v 3.110852 0.428380 0.036000
v 3.094804 0.465641 0.036000
v 3.089000 0.509000 0.036000
v 3.090686 0.535899 0.036000
v 3.095653 0.561023 0.036000
v 3.103766 0.584266 0.036000
v 3.114889 0.605519 0.036000
v 3.128887 0.624674 0.036000
v 3.145625 0.641625 0.036000
v 3.164967 0.656263 0.036000
v 3.186778 0.668482 0.036000
v 3.210922 0.678172 0.036000
v 3.237264 0.685227 0.036000
v 3.265668 0.689539 0.036000
v 3.296000 0.691000 0.036000
v 3.308998 0.690667 0.036000
v 3.321981 0.689667 0.036000
v 3.334938 0.688000 0.036000
v 3.347852 0.685667 0.036000
v 3.360711 0.682667 0.036000
v 3.373500 0.679000 0.036000
v 3.386206 0.674667 0.036000
v 3.398815 0.669667 0.036000
v 3.411313 0.664000 0.036000
v 3.423685 0.657667 0.036000
v 3.435919 0.650667 0.036000
v 3.448000 0.643000 0.036000
v 3.448000 0.532000 0.036000
v 3.433547 0.544951 -0.096000
v 3.419204 0.556357 -0.096000
v 3.405000 0.566297 -0.096000
v 3.390963 0.574852 -0.096000
v 3.377120 0.582101 -0.096000
v 3.363500 0.588125 -0.096000
v 3.350130 0.593003 -0.096000
v 3.337037 0.596815 -0.096000
v 3.324250 0.599641 -0.096000
v 3.311796 0.601560 -0.096000
v 3.299704 0.602653 -0.096000
v 3.288000 0.603000 -0.096000
v 3.272641 0.602323 -0.096000
v 3.258125 0.600333 -0.096000
v 3.244547 0.597094 -0.096000
v 3.232000 0.592667 -0.096000
v 3.220578 0.587115 -0.096000
v 3.210375 0.580500 -0.096000
v 3.201485 0.572885 -0.096000
v 3.194000 0.564333 -0.096000
v 3.188016 0.554906 -0.096000
v 3.183625 0.544667 -0.096000
v 3.180922 0.533677 -0.096000
v 3.180000 0.522000 -0.096000
v 3.185805 0.491817 -0.096000
v 3.201852 0.465954 -0.096000
v 3.226094 0.443187 -0.096000
v 3.256482 0.422296 -0.096000
v 3.290967 0.402058 -0.096000
v 3.327500 0.381250 -0.096000
v 3.364034 0.358650 -0.096000
v 3.398519 0.333037 -0.096000
v 3.428906 0.303187 -0.096000
v 3.453148 0.267880 -0.096000
v 3.469196 0.225891 -0.096000
v 3.475000 0.176000 -0.096000
v 3.473343 0.149883 -0.096000
v 3.468491 0.125144 -0.096000
v 3.460625 0.101953 -0.096000
v 3.449926 0.080481 -0.096000
v 3.436574 0.060899 -0.096000
v 3.420750 0.043375 -0.096000
v 3.402634 0.028080 -0.096000
v 3.382407 0.015185 -0.096000
v 3.360250 0.004859 -0.096000
v 3.336343 -0.002727 -0.096000
v 3.310866 -0.007403 -0.096000
v 3.284000 -0.009000 -0.096000
v 3.265785 -0.008582 -0.096000
v 3.248116 -0.007319 -0.096000
v 3.230953 -0.005203 -0.096000
v 3.214259 -0.002222 -0.096000
v 3.197996 0.001634 -0.096000
v 3.182125 0.006375 -0.096000
v 3.166608 0.012012 -0.096000
v 3.151407 0.018556 -0.096000
v 3.136484 0.026016 -0.096000
v 3.121801 0.034403 -0.096000
v 3.107319 0.043727 -0.096000
v 3.093000 0.054000 -0.096000
v 3.093000 0.178000 -0.096000
v 3.105766 0.162608 -0.096000
v 3.119042 0.148444 -0.096000
v 3.132797 0.135531 -0.096000
v 3.147000 0.123889 -0.096000
v 3.161620 0.113538 -0.096000
v 3.176625 0.104500 -0.096000
v 3.191984 0.096795 -0.096000
v 3.207667 0.090444 -0.096000
v 3.223641 0.085469 -0.096000
v 3.239875 0.081889 -0.096000
v 3.256339 0.079726 -0.096000
v 3.273000 0.079000 -0.096000
v 3.291150 0.079966 -0.096000
v 3.307611 0.082731 -0.096000
v 3.322407 0.087094 -0.096000
v 3.335556 0.092852 -0.096000
v 3.347080 0.099804 -0.096000
v 3.357000 0.107750 -0.096000
v 3.365337 0.116487 -0.096000
v 3.372111 0.125815 -0.096000
v 3.377344 0.135531 -0.096000
v 3.381056 0.145435 -0.096000
v 3.383267 0.155325 -0.096000
v 3.384000 0.165000 -0.096000
v 3.378195 0.197817 -0.096000
v 3.362148 0.226454 -0.096000
v 3.337906 0.251937 -0.096000
v 3.307518 0.275296 -0.096000
v 3.273033 0.297558 -0.096000
v 3.236500 0.319750 -0.096000
v 3.199966 0.342900 -0.096000
v 3.165481 0.368037 -0.096000
v 3.135094 0.396187 -0.096000
v 3.110852 0.428380 -0.096000
v 3.094804 0.465641 -0.096000
v 3.089000 0.509000 -0.096000
v 3.090686 0.535899 -0.096000
v 3.095653 0.561023 -0.096000
v 3.103766 0.584266 -0.096000
v 3.114889 0.605519 -0.096000
v 3.128887 0.624674 -0.096000
v 3.145625 0.641625 -0.096000
v 3.164967 0.656263 -0.096000
v 3.186778 0.668482 -0.096000
v 3.210922 0.678172 -0.096000
v 3.237264 0.685227 -0.096000
v 3.265668 0.689539 -0.096000
v 3.296000 0.691000 -0.096000
v 3.308998 0.690667 -0.096000
v 3.321981 0.689667 -0.096000
v 3.334938 0.688000 -0.096000
v 3.347852 0.685667 -0.096000
v 3.360711 0.682667 -0.096000
v 3.373500 0.679000 -0.096000
v 3.386206 0.674667 -0.096000
v 3.398815 0.669667 -0.096000
v 3.411313 0.664000 -0.096000
v 3.423685 0.657667 -0.096000
v 3.435919 0.650667 -0.096000
v 3.448000 0.643000 -0.096000
v 3.448000 0.532000 -0.096000
vn 0.0000 -0.0000 1.0000
vn 0.0000 0.0000 -1.0000
vn -0.6224 -0.7827 0.0000
vn -0.5734 -0.8193 0.0000
vn -0.5204 -0.8539 0.0000
vn -0.4639 -0.8859 0.0000
vn -0.4045 -0.9146 0.0000
vn -0.3427 -0.9394 0.0000
vn -0.2795 -0.9601 0.0000
vn -0.2158 -0.9764 0.0000
vn -0.1523 -0.9883 0.0000
vn -0.0900 -0.9959 0.0000
vn -0.0296 -0.9996 0.0000
vn 0.0440 -0.9990 0.0000
vn 0.1358 -0.9907 0.0000
vn 0.2321 -0.9727 0.0000
vn 0.3327 -0.9430 0.0000
vn 0.4372 -0.8994 0.0000
vn 0.5440 -0.8391 0.0000
vn 0.6505 -0.7595 0.0000
vn 0.7525 -0.6586 0.0000
vn 0.8442 -0.5360 0.0000
vn 0.9191 -0.3941 0.0000
vn 0.9711 -0.2389 0.0000
vn 0.9969 -0.0787 0.0000
vn 0.9820 0.1889 0.0000
vn 0.8497 0.5272 0.0000
vn 0.6846 0.7289 0.0000
vn 0.5665 0.8240 0.0000
vn 0.5062 0.8624 0.0000
vn 0.4949 0.8689 0.0000
vn 0.5261 0.8504 0.0000
vn 0.5963 0.8028 0.0000
vn 0.7008 0.7134 0.0000
vn 0.8244 0.5660 0.0000
vn 0.9341 0.3570 0.0000
vn 0.9933 0.1156 0.0000
vn 0.9980 -0.0633 0.0000
vn 0.9813 -0.1924 0.0000
vn 0.9470 -0.3212 0.0000
vn 0.8950 -0.4460 0.0000
vn 0.8262 -0.5633 0.0000
vn 0.7422 -0.6702 0.0000
vn 0.6451 -0.7641 0.0000
vn 0.5376 -0.8432 0.0000
vn 0.4224 -0.9064 0.0000
vn 0.3025 -0.9532 0.0000
vn 0.1805 -0.9836 0.0000
vn 0.0593 -0.9982 0.0000
vn -0.0230 -0.9997 0.0000
vn -0.0713 -0.9975 0.0000
vn -0.1224 -0.9925 0.0000
vn -0.1758 -0.9844 0.0000
vn -0.2307 -0.9730 0.0000
vn -0.2862 -0.9582 0.0000
vn -0.3415 -0.9399 0.0000
vn -0.3954 -0.9185 0.0000
vn -0.4471 -0.8945 0.0000
vn -0.4960 -0.8683 0.0000
vn -0.5414 -0.8408 0.0000
vn -0.5829 -0.8125 0.0000
vn -1.0000 -0.0000 0.0000
vn 0.7697 0.6384 0.0000
vn 0.7296 0.6839 0.0000
vn 0.6844 0.7291 0.0000
vn 0.6339 0.7734 0.0000
vn 0.5778 0.8162 0.0000
vn 0.5160 0.8566 0.0000
vn 0.4484 0.8938 0.0000
vn 0.3753 0.9269 0.0000
vn 0.2974 0.9548 0.0000
vn 0.2153 0.9765 0.0000
vn 0.1303 0.9915 0.0000
vn 0.0435 0.9991 0.0000
vn -0.0532 0.9986 0.0000
vn -0.1656 0.9862 0.0000
vn -0.2828 0.9592 0.0000
vn -0.4011 0.9160 0.0000
vn -0.5166 0.8562 0.0000
vn -0.6251 0.7805 0.0000
vn -0.7235 0.6903 0.0000
vn -0.8091 0.5876 0.0000
vn -0.8804 0.4741 0.0000
vn -0.9364 0.3509 0.0000
vn -0.9759 0.2182 0.0000
vn -0.9971 0.0755 0.0000
vn -0.9847 -0.1742 0.0000
vn -0.8724 -0.4889 -0.0000
vn -0.7245 -0.6892 0.0000
vn -0.6094 -0.7928 0.0000
vn -0.5424 -0.8401 0.0000
vn -0.5192 -0.8547 0.0000
vn -0.5353 -0.8447 0.0000
vn -0.5890 -0.8081 0.0000
vn -0.6796 -0.7336 0.0000
vn -0.7988 -0.6016 0.0000
vn -0.9184 -0.3956 0.0000
vn -0.9912 -0.1327 0.0000
vn -0.9980 0.0626 0.0000
vn -0.9810 0.1940 0.0000
vn -0.9441 0.3296 0.0000
vn -0.8860 0.4637 0.0000
vn -0.8074 0.5900 0.0000
vn -0.7116 0.7026 0.0000
vn -0.6035 0.7974 0.0000
vn -0.4887 0.8724 0.0000
vn -0.3725 0.9280 0.0000
vn -0.2587 0.9660 0.0000
vn -0.1501 0.9887 0.0000
vn -0.0481 0.9988 0.0000
vn 0.0256 0.9997 0.0000
vn 0.0768 0.9970 0.0000
vn 0.1276 0.9918 0.0000
vn 0.1778 0.9841 0.0000
vn 0.2272 0.9738 0.0000
vn 0.2756 0.9613 0.0000
vn 0.3228 0.9465 0.0000
vn 0.3686 0.9296 0.0000
vn 0.4129 0.9108 0.0000
vn 0.4557 0.8902 0.0000
vn 0.4966 0.8680 0.0000
vn 0.5358 0.8443 0.0000
vn 1.0000 -0.0000 0.0000
vn -0.6673 -0.7448 0.0000
s off
f 85//1 36//1 35//1 86//1
f 108//1 110//1 109//1
f 108//1 111//1 110//1
f 108//1 112//1 111//1
f 107//1 112//1 108//1
f 107//1 113//1 112//1
f 107//1 114//1 113//1
f 106//1 114//1 107//1
f 106//1 115//1 114//1
f 106//1 116//1 115//1
f 105//1 116//1 106//1
f 105//1 117//1 116//1
f 105//1 118//1 117//1
f 104//1 118//1 105//1
f 104//1 119//1 118//1
f 104//1 120//1 119//1
f 103//1 120//1 104//1
f 103//1 121//1 120//1
f 103//1 8//1 121//1
f 8//1 7//1 121//1
f 7//1 6//1 121//1
f 6//1 5//1 121//1
f 5//1 4//1 121//1
f 4//1 3//1 121//1
f 3//1 2//1 121//1
f 2//1 1//1 121//1
f 1//1 122//1 121//1
f 102//1 10//1 103//1
f 10//1 9//1 103//1
f 9//1 8//1 103//1
f 101//1 12//1 102//1
f 12//1 11//1 102//1
f 11//1 10//1 102//1
f 100//1 13//1 101//1
f 13//1 12//1 101//1
f 100//1 14//1 13//1
f 100//1 15//1 14//1
f 100//1 16//1 15//1
f 100//1 17//1 16//1
f 100//1 18//1 17//1
f 99//1 18//1 100//1
f 99//1 19//1 18//1
f 99//1 20//1 19//1
f 99//1 21//1 20//1
f 98//1 23//1 22//1
f 146//2 219//2 220//2 145//2
f 147//2 218//2 219//2 146//2
f 96//1 26//1 25//1
f 96//1 27//1 26//1
f 95//1 27//1 96//1
f 95//1 28//1 27//1
f 94//1 28//1 95//1
f 94//1 29//1 28//1
f 94//1 30//1 29//1
f 93//1 30//1 94//1
f 93//1 31//1 30//1
f 92//1 31//1 93//1
f 92//1 32//1 31//1
f 91//1 32//1 92//1
f 91//1 33//1 32//1
f 90//1 33//1 91//1
f 90//1 34//1 33//1
f 89//1 34//1 90//1
f 88//1 34//1 89//1
f 88//1 35//1 34//1
f 87//1 35//1 88//1
f 86//1 35//1 87//1
f 158//2 207//2 208//2 157//2
f 60//1 62//1 61//1
f 60//1 63//1 62//1
f 60//1 64//1 63//1
f 82//1 38//1 83//1
f 60//1 65//1 64//1
f 81//1 38//1 82//1
f 60//1 66//1 65//1
f 79//1 39//1 80//1
f 60//1 67//1 66//1
f 78//1 39//1 79//1
f 60//1 68//1 67//1
f 78//1 40//1 39//1
f 77//1 40//1 78//1
f 60//1 69//1 68//1
f 76//1 40//1 77//1
f 60//1 70//1 69//1
f 75//1 40//1 76//1
f 60//1 71//1 70//1
f 74//1 40//1 75//1
f 60//1 72//1 71//1
f 74//1 41//1 40//1
f 73//1 41//1 74//1
f 60//1 73//1 72//1
f 60//1 41//1 73//1
f 60//1 42//1 41//1
f 59//1 42//1 60//1
f 58//1 42//1 59//1
f 58//1 43//1 42//1
f 57//1 43//1 58//1
f 57//1 44//1 43//1
f 56//1 44//1 57//1
f 55//1 44//1 56//1
f 55//1 45//1 44//1
f 54//1 45//1 55//1
f 53//1 45//1 54//1
f 53//1 46//1 45//1
f 52//1 46//1 53//1
f 51//1 46//1 52//1
f 51//1 47//1 46//1
f 50//1 47//1 51//1
f 49//1 47//1 50//1
f 49//1 48//1 47//1
f 160//2 205//2 206//2 159//2
f 97//1 24//1 23//1 98//1
f 232//2 230//2 231//2
f 233//2 230//2 232//2
f 234//2 230//2 233//2
f 234//2 229//2 230//2
f 235//2 229//2 234//2
f 236//2 229//2 235//2
f 236//2 228//2 229//2
f 237//2 228//2 236//2
f 238//2 228//2 237//2
f 238//2 227//2 228//2
f 239//2 227//2 238//2
f 240//2 227//2 239//2
f 240//2 226//2 227//2
f 241//2 226//2 240//2
f 242//2 226//2 241//2
f 242//2 225//2 226//2
f 243//2 225//2 242//2
f 130//2 225//2 243//2
f 129//2 130//2 243//2
f 128//2 129//2 243//2
f 127//2 128//2 243//2
f 126//2 127//2 243//2
f 125//2 126//2 243//2
f 124//2 125//2 243//2
f 123//2 124//2 243//2
f 244//2 123//2 243//2
f 132//2 224//2 225//2
f 131//2 132//2 225//2
f 130//2 131//2 225//2
f 134//2 223//2 224//2
f 133//2 134//2 224//2
f 132//2 133//2 224//2
f 135//2 222//2 223//2
f 134//2 135//2 223//2
f 136//2 222//2 135//2
f 137//2 222//2 136//2
f 138//2 222//2 137//2
f 139//2 222//2 138//2
f 140//2 222//2 139//2
f 140//2 221//2 222//2
f 141//2 221//2 140//2
f 142//2 221//2 141//2
f 143//2 221//2 142//2
f 98//1 22//1 21//1 99//1
f 145//2 220//2 144//2
f 148//2 218//2 147//2
f 149//2 218//2 148//2
f 149//2 217//2 218//2
f 150//2 217//2 149//2
f 150//2 216//2 217//2
f 151//2 216//2 150//2
f 152//2 216//2 151//2
f 152//2 215//2 216//2
f 153//2 215//2 152//2
f 153//2 214//2 215//2
f 154//2 214//2 153//2
f 154//2 213//2 214//2
f 155//2 213//2 154//2
f 155//2 212//2 213//2
f 156//2 212//2 155//2
f 156//2 211//2 212//2
f 156//2 210//2 211//2
f 157//2 210//2 156//2
f 157//2 209//2 210//2
f 157//2 208//2 209//2
f 159//2 206//2 207//2 158//2
f 184//2 182//2 183//2
f 84//1 37//1 36//1 85//1
f 185//2 182//2 184//2
f 83//1 38//1 37//1 84//1
f 186//2 182//2 185//2
f 160//2 204//2 205//2
f 187//2 182//2 186//2
f 160//2 203//2 204//2
f 80//1 39//1 38//1 81//1
f 188//2 182//2 187//2
f 161//2 201//2 202//2
f 189//2 182//2 188//2
f 161//2 200//2 201//2
f 190//2 182//2 189//2
f 162//2 200//2 161//2
f 162//2 199//2 200//2
f 191//2 182//2 190//2
f 162//2 198//2 199//2
f 192//2 182//2 191//2
f 162//2 197//2 198//2
f 193//2 182//2 192//2
f 162//2 196//2 197//2
f 194//2 182//2 193//2
f 163//2 196//2 162//2
f 163//2 195//2 196//2
f 195//2 182//2 194//2
f 163//2 182//2 195//2
f 164//2 182//2 163//2
f 164//2 181//2 182//2
f 164//2 180//2 181//2
f 165//2 180//2 164//2
f 165//2 179//2 180//2
f 166//2 179//2 165//2
f 166//2 178//2 179//2
f 166//2 177//2 178//2
f 167//2 177//2 166//2
f 167//2 176//2 177//2
f 167//2 175//2 176//2
f 168//2 175//2 167//2
f 168//2 174//2 175//2
f 168//2 173//2 174//2
f 169//2 173//2 168//2
f 169//2 172//2 173//2
f 169//2 171//2 172//2
f 170//2 171//2 169//2
f 96//1 25//1 24//1 97//1
f 144//2 220//2 221//2 143//2
f 161//2 202//2 203//2 160//2
f 1//3 2//3 124//3 123//3
f 2//4 3//4 125//4 124//4
f 3//5 4//5 126//5 125//5
f 4//6 5//6 127//6 126//6
f 5//7 6//7 128//7 127//7
f 6//8 7//8 129//8 128//8
f 7//9 8//9 130//9 129//9
f 8//10 9//10 131//10 130//10
f 9//11 10//11 132//11 131//11
f 10//12 11//12 133//12 132//12
f 11//13 12//13 134//13 133//13
f 12//14 13//14 135//14 134//14
f 13//15 14//15 136//15 135//15
f 14//16 15//16 137//16 136//16
f 15//17 16//17 138//17 137//17
f 16//18 17//18 139//18 138//18
f 17//19 18//19 140//19 139//19
f 18//20 19//20 141//20 140//20
f 19//21 20//21 142//21 141//21
f 20//22 21//22 143//22 142//22
f 21//23 22//23 144//23 143//23
f 22//24 23//24 145//24 144//24
f 23//25 24//25 146//25 145//25
f 24//26 25//26 147//26 146//26
f 25//27 26//27 148//27 147//27
f 26//28 27//28 149//28 148//28
f 27//29 28//29 150//29 149//29
f 28//30 29//30 151//30 150//30
f 29//31 30//31 152//31 151//31
f 30//32 31//32 153//32 152//32
f 31//33 32//33 154//33 153//33
f 32//34 33//34 155//34 154//34
f 33//35 34//35 156//35 155//35
f 34//36 35//36 157//36 156//36
f 35//37 36//37 158//37 157//37
f 36//38 37//38 159//38 158//38
f 37//39 38//39 160//39 159//39
f 38//40 39//40 161//40 160//40
f 39//41 40//41 162//41 161//41
f 40//42 41//42 163//42 162//42
f 41//43 42//43 164//43 163//43
f 42//44 43//44 165//44 164//44
f 43//45 44//45 166//45 165//45
f 44//46 45//46 167//46 166//46
f 45//47 46//47 168//47 167//47
f 46//48 47//48 169//48 168//48
f 47//49 48//49 170//49 169//49
f 48//50 49//50 171//50 170//50
f 49//51 50//51 172//51 171//51
f 50//52 51//52 173//52 172//52
f 51//53 52//53 174//53 173//53
f 52//54 53//54 175//54 174//54
f 53//55 54//55 176//55 175//55
f 54//56 55//56 177//56 176//56
f 55//57 56//57 178//57 177//57
f 56//58 57//58 179//58 178//58
f 57//59 58//59 180//59 179//59
f 58//60 59//60 181//60 180//60
f 59//61 60//61 182//61 181//61
f 60//62 61//62 183//62 182//62
f 61//63 62//63 184//63 183//63
f 62//64 63//64 185//64 184//64
f 63//65 64//65 186//65 185//65
f 64//66 65//66 187//66 186//66
f 65//67 66//67 188//67 187//67
f 66//68 67//68 189//68 188//68
f 67//69 68//69 190//69 189//69
f 68//70 69//70 191//70 190//70
f 69//71 70//71 192//71 191//71
f 70//72 71//72 193//72 192//72
f 71//73 72//73 194//73 193//73
f 72//74 73//74 195//74 194//74
f 73//75 74//75 196//75 195//75
f 74//76 75//76 197//76 196//76
f 75//77 76//77 198//77 197//77
f 76//78 77//78 199//78 198//78
f 77//79 78//79 200//79 199//79
f 78//80 79//80 201//80 200//80
f 79//81 80//81 202//81 201//81
f 80//82 81//82 203//82 202//82
f 81//83 82//83 204//83 203//83
f 82//84 83//84 205//84 204//84
f 83//85 84//85 206//85 205//85
f 84//86 85//86 207//86 206//86
f 85//87 86//87 208//87 207//87
f 86//88 87//88 209//88 208//88
f 87//89 88//89 210//89 209//89
f 88//90 89//90 211//90 210//90
f 89//91 90//91 212//91 211//91
f 90//92 91//92 213//92 212//92
f 91//93 92//93 214//93 213//93
f 92//94 93//94 215//94 214//94
f 93//95 94//95 216//95 215//95
f 94//96 95//96 217//96 216//96
f 95//97 96//97 218//97 217//97
f 96//98 97//98 219//98 218//98
f 97//99 98//99 220//99 219//99
f 98//100 99//100 221//100 220//100
f 99//101 100//101 222//101 221//101
f 100//102 101//102 223//102 222//102
f 101//103 102//103 224//103 223//103
f 102//104 103//104 225//104 224//104
f 103//105 104//105 226//105 225//105
f 104//106 105//106 227//106 226//106
f 105//107 106//107 228//107 227//107
f 106//108 107//108 229//108 228//108
f 107//109 108//109 230//109 229//109
f 108//110 109//110 231//110 230//110
f 109//111 110//111 232//111 231//111
f 110//112 111//112 233//112 232//112
f 111//113 112//113 234//113 233//113
f 112//114 113//114 235//114 234//114
f 113//115 114//115 236//115 235//115
f 114//116 115//116 237//116 236//116
f 115//117 116//117 238//117 237//117
f 116//118 117//118 239//118 238//118
f 117//119 118//119 240//119 239//119
f 118//120 119//120 241//120 240//120
f 119//121 120//121 242//121 241//121
f 120//122 121//122 243//122 242//122
f 121//123 122//123 244//123 243//123
f 122//124 1//124 123//124 244//124
