# Blender v2.79 (sub 0) OBJ File: 'title3.blend'
# www.blender.org
o 2.2H_CUText.006
v 4.112000 0.000000 0.036000
v 4.112000 0.297000 0.036000
v 3.730000 0.297000 0.036000
v 3.730000 0.000000 0.036000
v 3.632000 0.000000 0.036000
v 3.632000 0.682000 0.036000
v 3.730000 0.682000 0.036000
v 3.730000 0.385000 0.036000
v 4.112000 0.385000 0.036000
v 4.112000 0.682000 0.036000
v 4.210000 0.682000 0.036000
v 4.210000 0.000000 0.036000
v 4.112000 0.000000 -0.096000
v 4.112000 0.297000 -0.096000
v 3.730000 0.297000 -0.096000
v 3.730000 0.000000 -0.096000
v 3.632000 0.000000 -0.096000
v 3.632000 0.682000 -0.096000
v 3.730000 0.682000 -0.096000
v 3.730000 0.385000 -0.096000
v 4.112000 0.385000 -0.096000
v 4.112000 0.682000 -0.096000
v 4.210000 0.682000 -0.096000
v 4.210000 0.000000 -0.096000
vn 0.0000 -0.0000 1.0000
vn 0.0000 0.0000 -1.0000
vn -1.0000 0.0000 0.0000
vn 0.0000 -1.0000 0.0000
vn 1.0000 -0.0000 0.0000
vn 0.0000 1.0000 0.0000
s off
f 5//1 7//1 6//1
f 5//1 8//1 7//1
f 9//1 11//1 10//1
f 9//1 12//1 11//1
f 5//1 3//1 8//1
f 2//1 12//1 9//1
f 5//1 4//1 3//1
f 1//1 12//1 2//1
f 19//2 17//2 18//2
f 20//2 17//2 19//2
f 23//2 21//2 22//2
f 24//2 21//2 23//2
f 15//2 17//2 20//2
f 24//2 14//2 21//2
f 16//2 17//2 15//2
f 24//2 13//2 14//2
f 3//1 2//1 9//1 8//1
f 1//3 2//3 14//3 13//3
f 2//4 3//4 15//4 14//4
f 3//5 4//5 16//5 15//5
f 4//4 5//4 17//4 16//4
f 5//3 6//3 18//3 17//3
f 6//6 7//6 19//6 18//6
f 7//5 8//5 20//5 19//5
f 8//6 9//6 21//6 20//6
f 9//3 10//3 22//3 21//3
f 10//6 11//6 23//6 22//6
f 11//5 12//5 24//5 23//5
f 12//4 1//4 13//4 24//4
f 14//2 15//2 20//2 21//2
