# Blender v2.79 (sub 0) OBJ File: 'title3.blend'
# www.blender.org
o 2.3A_CUText.007
v 4.903000 0.000000 0.036000
v 4.812000 0.201000 0.036000
v 4.522000 0.201000 0.036000
v 4.436000 0.000000 0.036000
v 4.336000 0.000000 0.036000
v 4.629001 0.686000 0.036000
v 4.698000 0.686000 0.036000
v 5.003000 0.000000 0.036000
v 4.772000 0.289000 0.036000
v 4.662001 0.536000 0.036000
v 4.560000 0.289000 0.036000
v 4.903000 0.000000 -0.096000
v 4.812000 0.201000 -0.096000
v 4.522000 0.201000 -0.096000
v 4.436000 0.000000 -0.096000
v 4.336000 0.000000 -0.096000
v 4.629001 0.686000 -0.096000
v 4.698000 0.686000 -0.096000
v 5.003000 0.000000 -0.096000
v 4.772000 0.289000 -0.096000
v 4.662001 0.536000 -0.096000
v 4.560000 0.289000 -0.096000
vn 0.0000 0.0000 -1.0000
vn 0.0000 -0.0000 1.0000
vn -0.9110 -0.4124 0.0000
vn 0.0000 -1.0000 0.0000
vn 0.9194 -0.3934 0.0000
vn -0.9196 0.3928 0.0000
vn 0.0000 1.0000 0.0000
vn 0.9138 0.4063 0.0000
vn -0.9135 -0.4068 0.0000
vn 0.9243 -0.3817 0.0000
s off
f 13//1 14//1 22//1 20//1
f 5//2 7//2 6//2
f 5//2 10//2 7//2
f 10//2 8//2 7//2
f 5//2 11//2 10//2
f 9//2 8//2 10//2
f 5//2 3//2 11//2
f 2//2 8//2 9//2
f 5//2 4//2 3//2
f 1//2 8//2 2//2
f 18//1 16//1 17//1
f 21//1 16//1 18//1
f 19//1 21//1 18//1
f 22//1 16//1 21//1
f 19//1 20//1 21//1
f 14//1 16//1 22//1
f 3//2 2//2 9//2 11//2
f 19//1 13//1 20//1
f 15//1 16//1 14//1
f 19//1 12//1 13//1
f 1//3 2//3 13//3 12//3
f 2//4 3//4 14//4 13//4
f 3//5 4//5 15//5 14//5
f 4//4 5//4 16//4 15//4
f 5//6 6//6 17//6 16//6
f 6//7 7//7 18//7 17//7
f 7//8 8//8 19//8 18//8
f 8//4 1//4 12//4 19//4
f 9//9 10//9 21//9 20//9
f 10//10 11//10 22//10 21//10
f 11//7 9//7 20//7 22//7
